<svg xmlns="http://www.w3.org/2000/svg" xmlns:xlink="http://www.w3.org/1999/xlink" version="1.1" x="0px" y="0px" viewBox="0 0 500 500" style="enable-background:new 0 0 500 500;" xml:space="preserve">
<style xmlns="http://www.w3.org/2000/svg" type="text/css">
	.st0{fill-rule:evenodd;clip-rule:evenodd;fill:#1E0F00;}
	.st1{fill-rule:evenodd;clip-rule:evenodd;fill:#D3D3D3;}
	.st2{fill-rule:evenodd;clip-rule:evenodd;fill:#E2E4E8;}
	.st3{fill-rule:evenodd;clip-rule:evenodd;fill:#EEEEEF;}
	.st4{fill-rule:evenodd;clip-rule:evenodd;fill:#8c60f6;}
	.st5{fill-rule:evenodd;clip-rule:evenodd;fill:#535671;}
	.st6{fill-rule:evenodd;clip-rule:evenodd;fill:#66646D;}
	.st7{fill-rule:evenodd;clip-rule:evenodd;fill:#0E538B;}
	.st8{fill-rule:evenodd;clip-rule:evenodd;fill:#FFFFFF;}
	.st9{fill-rule:evenodd;clip-rule:evenodd;fill:#E7E5E4;}
	.st10{fill-rule:evenodd;clip-rule:evenodd;fill:#E3E3E3;}
	.st11{fill-rule:evenodd;clip-rule:evenodd;fill:#2993F2;}
	.st12{fill-rule:evenodd;clip-rule:evenodd;fill:#CCE9FF;}
</style>
<g xmlns="http://www.w3.org/2000/svg" id="BACKGROUND">
</g>
<g xmlns="http://www.w3.org/2000/svg" id="OBJECTS">
	<g>
		<path class="st0" d="M434.9,375.2c0,10.9-8.8,19.7-19.7,19.7H84.8c-10.9,0-19.7-8.8-19.7-19.7V156.1c0-10.9,8.8-19.7,19.7-19.7    h330.4c10.9,0,19.7,8.8,19.7,19.7V375.2z"/>
		<path class="st1" d="M20.1,373.7v4.8c0,10.4,11,18.9,24.5,18.9h410.9c13.5,0,24.5-8.5,24.5-18.9v-4.8H20.1z"/>
		<polygon class="st2" points="79.6,152.9 79.6,353.5 418.7,353.5 418.7,169.6 79.6,169.6   "/>
		<rect x="319.5" y="187.9" class="st3" width="91.7" height="122.4"/>
		<rect x="79.6" y="152.9" class="st4" width="339.1" height="16.7"/>
		<rect x="100.1" y="152.9" class="st3" width="208.4" height="190.2"/>
		<path class="st5" d="M455.5,404.3C455.5,404.3,455.5,404.3,455.5,404.3L455.5,404.3C455.5,404.3,455.5,404.3,455.5,404.3    L455.5,404.3z M44.4,404.3L44.4,404.3L44.4,404.3L44.4,404.3L44.4,404.3L44.4,404.3z M455.6,404.3L455.6,404.3    C455.6,404.3,455.6,404.3,455.6,404.3C455.6,404.3,455.6,404.3,455.6,404.3L455.6,404.3z M455.8,404.3L455.8,404.3    C455.7,404.3,455.7,404.3,455.8,404.3C455.7,404.3,455.7,404.3,455.8,404.3L455.8,404.3z M455.9,404.3L455.9,404.3    C455.8,404.3,455.8,404.3,455.9,404.3C455.8,404.3,455.8,404.3,455.9,404.3L455.9,404.3z M467.1,401.4L467.1,401.4    c-3.4,1.8-7.2,2.9-11.2,2.9C459.9,404.3,463.8,403.2,467.1,401.4L467.1,401.4z M467.2,401.3L467.2,401.3    C467.2,401.4,467.2,401.4,467.2,401.3C467.2,401.4,467.2,401.4,467.2,401.3L467.2,401.3z M467.3,401.3L467.3,401.3    c0,0-0.1,0-0.1,0.1C467.2,401.3,467.3,401.3,467.3,401.3L467.3,401.3z M467.4,401.2L467.4,401.2    C467.4,401.3,467.3,401.3,467.4,401.2C467.3,401.3,467.4,401.3,467.4,401.2L467.4,401.2z M467.5,401.2L467.5,401.2    C467.4,401.2,467.4,401.2,467.5,401.2C467.4,401.2,467.4,401.2,467.5,401.2L467.5,401.2z M467.6,401.1L467.6,401.1    C467.5,401.1,467.5,401.2,467.6,401.1C467.5,401.2,467.5,401.1,467.6,401.1L467.6,401.1z M467.6,401.1L467.6,401.1    C467.6,401.1,467.6,401.1,467.6,401.1C467.6,401.1,467.6,401.1,467.6,401.1z"/>
		<path class="st6" d="M477.6,386.5H22.4c3.9,6.4,12.3,10.8,22,10.8h0c0,0,0.1,0,0.1,0h410.9c0,0,0,0,0,0c0,0,0.1,0,0.1,0    c0,0,0,0,0,0c0,0,0,0,0.1,0c0,0,0.1,0,0.1,0c0,0,0,0,0,0c0,0,0,0,0.1,0c0,0,0,0,0,0c4.1-0.1,7.9-0.9,11.2-2.3c0,0,0,0,0,0    c0,0,0,0,0.1,0c0,0,0,0,0,0c0,0,0.1,0,0.1,0c0,0,0,0,0,0c0,0,0,0,0,0c0,0,0,0,0,0c0,0,0,0,0,0c0,0,0,0,0.1,0c0,0,0,0,0,0    c0,0,0,0,0.1,0c0,0,0,0,0,0C472,392.9,475.4,390,477.6,386.5z"/>
		<g>
			<rect x="314.3" y="184.4" class="st7" width="92.2" height="120.9"/>
			<g>
				<rect x="323.5" y="197" class="st8" width="23.1" height="1.4"/>
				<rect x="323.5" y="200.5" class="st8" width="12.2" height="1.4"/>
				<rect x="323.5" y="204.1" class="st8" width="19.7" height="1.4"/>
				<rect x="332.6" y="211.2" class="st8" width="11.5" height="1.4"/>
				<rect x="340.6" y="214.8" class="st8" width="11.2" height="1.4"/>
				<rect x="339.7" y="200.5" class="st8" width="20.8" height="1.4"/>
				<rect x="363.5" y="200.5" class="st8" width="9.9" height="1.4"/>
				<rect x="377.2" y="200.5" class="st8" width="13.4" height="1.4"/>
				<rect x="346.4" y="204.1" class="st8" width="11.7" height="1.4"/>
				<polygon class="st8" points="344.1,207.7 341.9,207.7 332.6,207.7 332.6,209.1 341.9,209.1 344.1,209.1 354.3,209.1       354.3,207.7     "/>
				<rect x="347.6" y="211.2" class="st8" width="11.5" height="1.4"/>
				<rect x="357.5" y="207.7" class="st8" width="12.8" height="1.4"/>
				<rect x="372.8" y="207.7" class="st8" width="6.7" height="1.4"/>
				<rect x="382.3" y="207.7" class="st8" width="8.3" height="1.4"/>
				<rect x="361.6" y="211.2" class="st8" width="14.5" height="1.4"/>
				<rect x="378.3" y="211.2" class="st8" width="4.3" height="1.4"/>
				<rect x="354.9" y="214.8" class="st8" width="8.3" height="1.4"/>
				<rect x="332.6" y="222" class="st8" width="11.5" height="1.4"/>
				<rect x="332.6" y="225.5" class="st8" width="11.5" height="1.4"/>
				<rect x="347.6" y="225.5" class="st8" width="10.3" height="1.4"/>
				<polygon class="st8" points="359.1,222 357.5,222 347.6,222 347.6,223.4 357.5,223.4 359.1,223.4 367.3,223.4 367.3,222     "/>
				<rect x="369.2" y="222" class="st8" width="5.2" height="1.4"/>
				<rect x="376.6" y="222" class="st8" width="6.4" height="1.4"/>
				<rect x="368" y="225.5" class="st8" width="11.5" height="1.4"/>
				<rect x="332.6" y="229.1" class="st8" width="11.5" height="1.4"/>
				<rect x="332.6" y="232.7" class="st8" width="11.5" height="1.4"/>
				<rect x="347.6" y="229.1" class="st8" width="6.7" height="1.4"/>
				<rect x="347.6" y="232.7" class="st8" width="21" height="1.4"/>
				<polygon class="st8" points="370.2,229.1 365,229.1 357.5,229.1 357.5,230.5 365,230.5 370.2,230.5 379.5,230.5 379.5,229.1           "/>
				<rect x="382.3" y="229.1" class="st8" width="8.3" height="1.4"/>
				<rect x="371.2" y="232.7" class="st8" width="11.8" height="1.4"/>
				<rect x="360.2" y="225.5" class="st8" width="4.9" height="1.4"/>
				<rect x="323.5" y="239.8" class="st8" width="12.2" height="1.4"/>
				<rect x="323.5" y="243.4" class="st8" width="19.7" height="1.4"/>
				<rect x="332.6" y="247" class="st8" width="11.5" height="1.4"/>
				<rect x="332.6" y="250.5" class="st8" width="11.5" height="1.5"/>
				<polygon class="st8" points="356.4,239.8 354.2,239.8 339.7,239.8 339.7,241.3 354.2,241.3 356.4,241.3 360.1,241.3       360.1,239.8     "/>
				<rect x="363.8" y="239.8" class="st8" width="18.5" height="1.4"/>
				<rect x="346.4" y="243.4" class="st8" width="11.7" height="1.4"/>
				<rect x="347.6" y="250.5" class="st8" width="8.9" height="1.5"/>
				<polygon class="st8" points="365.3,247 363.8,247 347.6,247 347.6,248.4 363.8,248.4 365.3,248.4 373.6,248.4 373.6,247     "/>
				<rect x="359.1" y="250.5" class="st8" width="17" height="1.5"/>
				<rect x="378.3" y="250.5" class="st8" width="4.3" height="1.5"/>
				<rect x="354.9" y="254.1" class="st8" width="8.3" height="1.4"/>
				<polygon class="st8" points="351.7,254.1 348.7,254.1 340.6,254.1 340.6,255.5 348.7,255.5 351.7,255.5 380.5,255.5       380.5,254.1     "/>
				<rect x="382.8" y="254.1" class="st8" width="4.6" height="1.4"/>
				<rect x="332.6" y="261.2" class="st8" width="11.5" height="1.4"/>
				<rect x="332.6" y="264.8" class="st8" width="11.5" height="1.4"/>
				<rect x="347.6" y="261.2" class="st8" width="18.9" height="1.4"/>
				<rect x="347.6" y="264.8" class="st8" width="10.3" height="1.4"/>
				<rect x="369.2" y="261.2" class="st8" width="5.2" height="1.4"/>
				<rect x="376.6" y="261.2" class="st8" width="6.4" height="1.4"/>
				<rect x="368" y="264.8" class="st8" width="11.5" height="1.4"/>
				<rect x="360.2" y="264.8" class="st8" width="4.9" height="1.4"/>
				<rect x="323.5" y="270.7" class="st8" width="12.2" height="1.4"/>
				<rect x="323.5" y="274.2" class="st8" width="19.7" height="1.4"/>
				<rect x="332.6" y="277.8" class="st8" width="11.5" height="1.4"/>
				<rect x="332.6" y="281.4" class="st8" width="11.5" height="1.4"/>
				<rect x="340.6" y="284.9" class="st8" width="11.2" height="1.4"/>
				<rect x="339.7" y="270.7" class="st8" width="11.5" height="1.4"/>
				<polygon class="st8" points="366.3,270.7 363.8,270.7 354.2,270.7 354.2,272.1 363.8,272.1 366.3,272.1 390.6,272.1       390.6,270.7     "/>
				<rect x="346.4" y="274.2" class="st8" width="11.7" height="1.4"/>
				<rect x="347.6" y="281.4" class="st8" width="8.9" height="1.4"/>
				<polygon class="st8" points="365,277.8 363.8,277.8 347.6,277.8 347.6,279.2 363.8,279.2 365,279.2 373.6,279.2 373.6,277.8           "/>
				<rect x="376.1" y="277.8" class="st8" width="5.9" height="1.4"/>
				<rect x="384.9" y="277.8" class="st8" width="5.7" height="1.4"/>
				<rect x="359.1" y="281.4" class="st8" width="17" height="1.4"/>
				<rect x="378.3" y="281.4" class="st8" width="4.3" height="1.4"/>
				<rect x="354.9" y="284.9" class="st8" width="8.3" height="1.4"/>
				<rect x="332.6" y="295.7" class="st8" width="11.5" height="1.4"/>
				<polygon class="st8" points="344.1,292.1 339.9,292.1 332.6,292.1 332.6,293.5 339.9,293.5 344.1,293.5 366.5,293.5       366.5,292.1     "/>
				<rect x="347.6" y="295.7" class="st8" width="10.3" height="1.4"/>
				<rect x="369.2" y="292.1" class="st8" width="5.2" height="1.4"/>
				<rect x="376.6" y="292.1" class="st8" width="6.4" height="1.4"/>
				<rect x="368" y="295.7" class="st8" width="11.5" height="1.4"/>
				<rect x="360.2" y="295.7" class="st8" width="4.9" height="1.4"/>
			</g>
			<rect x="314.3" y="184.4" class="st4" width="92.2" height="7.2"/>
			<path class="st9" d="M402,187.5c0,1-0.8,1.9-1.9,1.9c-1,0-1.9-0.8-1.9-1.9c0-1,0.8-1.9,1.9-1.9C401.2,185.6,402,186.5,402,187.5z     "/>
			<path class="st9" d="M395.8,187.5c0,1-0.8,1.9-1.9,1.9c-1,0-1.9-0.8-1.9-1.9c0-1,0.8-1.9,1.9-1.9     C394.9,185.6,395.8,186.5,395.8,187.5z"/>
		</g>
		<g>
			<rect x="93.9" y="95.7" class="st8" width="210.5" height="242.7"/>
			<rect x="93.9" y="95.7" class="st4" width="210.5" height="11.7"/>
			<path class="st9" d="M298.5,101.2c0,1.5-1.3,2.8-2.8,2.8c-1.5,0-2.8-1.3-2.8-2.8c0-1.5,1.3-2.8,2.8-2.8     C297.3,98.4,298.5,99.7,298.5,101.2z"/>
			<path class="st9" d="M289.2,101.2c0,1.5-1.3,2.8-2.8,2.8c-1.6,0-2.8-1.3-2.8-2.8c0-1.5,1.3-2.8,2.8-2.8     C287.9,98.4,289.2,99.7,289.2,101.2z"/>
			<rect x="93.9" y="128.5" class="st4" width="210.5" height="13.7"/>
			<rect x="228.1" y="132.3" class="st8" width="64.5" height="6"/>
			<g>
				<rect x="108.2" y="133.3" class="st10" width="18.9" height="4"/>
				<rect x="128.6" y="133.3" class="st10" width="18.9" height="4"/>
				<rect x="149.1" y="133.3" class="st10" width="18.9" height="4"/>
				<rect x="169.5" y="133.3" class="st10" width="18.9" height="4"/>
			</g>
			<rect x="135.6" y="162.5" class="st11" width="38.3" height="31.1"/>
			<path class="st8" d="M296.8,133c-0.8,0-1.5,0.7-1.5,1.5c0,0.8,0.7,1.5,1.5,1.5c0.8,0,1.5-0.7,1.5-1.5     C298.3,133.7,297.6,133,296.8,133L296.8,133z M295.4,133.2L295.4,133.2c0.8-0.8,2.1-0.8,2.8,0c0.8,0.8,0.8,2,0,2.8     c-0.8,0.8-2.1,0.8-2.8,0C294.6,135.2,294.6,133.9,295.4,133.2z"/>
			<path class="st8" d="M298.6,136.7l-0.4-0.4c0.1-0.1,0.2-0.1,0.2-0.2c0.1-0.1,0.2-0.2,0.2-0.3l0.5,0.4L298.6,136.7z"/>
			<path class="st8" d="M300.9,138c0.2,0.2,0.2,0.4,0,0.6c-0.2,0.2-0.4,0.2-0.6,0l-1.8-1.7l0.6-0.6L300.9,138z"/>
			<path class="st8" d="M296.7,135.8c0.1,0,0.3,0,0.4-0.1h0c0.1,0,0.1-0.1,0.1-0.2c0-0.1-0.1-0.1-0.2-0.1c-0.1,0-0.2,0.1-0.3,0.1     c-0.3,0-0.5-0.2-0.6-0.4c0-0.1-0.1-0.1-0.2-0.1c-0.1,0-0.1,0.1-0.1,0.2C295.9,135.6,296.3,135.8,296.7,135.8L296.7,135.8z"/>
			<rect x="178.2" y="162.3" class="st4" width="38.3" height="31.1"/>
			<rect x="220.9" y="162.1" class="st12" width="38.3" height="31.1"/>
			<rect x="110.7" y="299.2" class="st1" width="54.9" height="2.7"/>
			<rect x="110.7" y="304.1" class="st1" width="54.9" height="2.7"/>
			<rect x="110.7" y="309" class="st1" width="54.9" height="2.7"/>
			<rect x="110.7" y="313.9" class="st1" width="54.9" height="2.7"/>
			<rect x="110.7" y="318.8" class="st1" width="54.9" height="2.7"/>
			<rect x="110.7" y="323.7" class="st1" width="54.9" height="2.7"/>
			<rect x="110.7" y="328.6" class="st1" width="54.9" height="2.7"/>
			<rect x="172.4" y="299.2" class="st1" width="54.9" height="2.7"/>
			<rect x="172.4" y="304.1" class="st1" width="54.9" height="2.7"/>
			<rect x="172.4" y="309" class="st1" width="54.9" height="2.7"/>
			<rect x="172.4" y="313.9" class="st1" width="54.9" height="2.7"/>
			<rect x="172.4" y="318.8" class="st1" width="54.9" height="2.7"/>
			<rect x="172.4" y="323.7" class="st1" width="54.9" height="2.7"/>
			<rect x="172.4" y="328.6" class="st1" width="54.9" height="2.7"/>
			<rect x="234.4" y="299.2" class="st1" width="54.9" height="2.7"/>
			<rect x="234.4" y="304.1" class="st1" width="54.9" height="2.7"/>
			<rect x="234.4" y="309" class="st1" width="54.9" height="2.7"/>
			<rect x="234.4" y="313.9" class="st1" width="54.9" height="2.7"/>
			<rect x="234.4" y="318.8" class="st1" width="54.9" height="2.7"/>
			<rect x="234.4" y="323.7" class="st1" width="54.9" height="2.7"/>
			<rect x="234.4" y="328.6" class="st1" width="54.9" height="2.7"/>
			<rect x="93.9" y="213.7" class="st4" width="210.5" height="65.7"/>
			<rect x="113.6" y="224.6" class="st10" width="54.3" height="44"/>
			<rect x="181.9" y="240" class="st8" width="86.8" height="1.4"/>
			<rect x="181.9" y="243.6" class="st8" width="86.8" height="1.4"/>
			<rect x="181.9" y="247.2" class="st8" width="86.8" height="1.4"/>
			<rect x="181.9" y="250.7" class="st8" width="57.2" height="1.4"/>
			<g>
				<polygon class="st10" points="96.3,246.6 98.9,245.1 101.5,243.6 101.5,246.6 101.5,249.6 98.9,248.1     "/>
				<polygon class="st10" points="302,246.6 299.4,245.1 296.8,243.6 296.8,246.6 296.8,249.6 299.4,248.1     "/>
			</g>
			<rect x="110.7" y="282.5" class="st11" width="54.9" height="14.2"/>
			<rect x="172.4" y="283.1" class="st12" width="54.9" height="14.2"/>
			<rect x="234.4" y="283.3" class="st4" width="54.9" height="14.2"/>
		</g>
	</g>
</g>
<g xmlns="http://www.w3.org/2000/svg" id="DESIGNED_BY_FREEPIK">
</g>
</svg>