<?xml version="1.0" encoding="iso-8859-1"?>
<!-- Generator: Adobe Illustrator 18.0.0, SVG Export Plug-In . SVG Version: 6.00 Build 0)  -->
<!DOCTYPE svg PUBLIC "-//W3C//DTD SVG 1.1//EN" "http://www.w3.org/Graphics/SVG/1.1/DTD/svg11.dtd">
<svg fill="#4692b2" version="1.1" id="Capa_1" xmlns="http://www.w3.org/2000/svg" xmlns:xlink="http://www.w3.org/1999/xlink" x="0px" y="0px"
	 viewBox="0 0 58 58" style="enable-background:new 0 0 58 58;" xml:space="preserve">
<g>
	<path d="M6.5,41v15c0,1.009,1.22,2,2.463,2h40.074c1.243,0,2.463-0.991,2.463-2V41H6.5z M22.717,45.168h-4.635v3.172h4.211v1.121
		h-4.211v3.295h4.635V54h-6.303V43.924h6.303V45.168z M32.137,54h-1.9l-1.6-3.801H28.5L26.777,54h-1.9l2.557-4.895l-2.721-5.182
		h1.873l1.777,4.102H28.5l1.928-4.102h1.873l-2.721,5.182L32.137,54z M40.9,45.168h-4.635v3.172h4.211v1.121h-4.211v3.295H40.9V54
		h-6.303V43.924H40.9V45.168z"/>
	<path d="M51.5,39V13.978c0-0.766-0.092-1.333-0.55-1.792L39.313,0.55C38.964,0.201,38.48,0,37.985,0H8.963
		C7.777,0,6.5,0.916,6.5,2.926V39H51.5z M37.5,3.391c0-0.458,0.553-0.687,0.877-0.363l10.095,10.095
		C48.796,13.447,48.567,14,48.109,14H37.5V3.391z M33.545,32.702l5-16c0.165-0.527,0.726-0.82,1.253-0.656
		c0.527,0.165,0.821,0.726,0.656,1.253l-5,16C35.321,33.726,34.926,34,34.5,34c-0.099,0-0.2-0.015-0.299-0.046
		C33.675,33.79,33.381,33.229,33.545,32.702z M30,20c0.828,0,1.5,0.672,1.5,1.5S30.828,23,30,23s-1.5-0.672-1.5-1.5S29.172,20,30,20
		z M30,27c0.828,0,1.5,0.672,1.5,1.5S30.828,30,30,30s-1.5-0.672-1.5-1.5S29.172,27,30,27z M22.5,18h2c0.552,0,1,0.448,1,1
		s-0.448,1-1,1h-2c-2.757,0-5,2.243-5,5s2.243,5,5,5h2c0.552,0,1,0.448,1,1s-0.448,1-1,1h-2c-3.86,0-7-3.14-7-7S18.64,18,22.5,18z"
		/>
</g>
<g>
</g>
<g>
</g>
<g>
</g>
<g>
</g>
<g>
</g>
<g>
</g>
<g>
</g>
<g>
</g>
<g>
</g>
<g>
</g>
<g>
</g>
<g>
</g>
<g>
</g>
<g>
</g>
<g>
</g>
</svg>
